<?xml version="1.0" encoding="UTF-8"?>
<svg id="svg_doc" version="1.1" xmlns="http://www.w3.org/2000/svg" xmlns:xlink="http://www.w3.org/1999/xlink"  xml:space="preserve">
	<script>
		<![CDATA[onload = function(){

			var screenWidth = window.innerWidth
				|| document.documentElement.clientWidth
				|| document.body.clientWidth;
			var screenHeight = window.innerHeight
				|| document.documentElement.clientHeight
				|| document.body.clientHeight;

			var logo = document.getElementById('logo');
			var logoBox = getBox('logo');
			var scale = 0;

			var pathes = {
				arr: [],
				addObj: function(obj){
					var n = obj.getAttribute('id');
					var l = obj.getTotalLength();
					var ob = {
						name: n,
						len: l,
						obj: obj
					};
					this.arr.push(ob);
				}
			};

			function easeInOut(x){return (Math.sin(Math.PI * (x - 0.5)) + 1) / 2};

			function getBox(id){
				var r = {
					width: document.getElementById(id).getBoundingClientRect().width,
					height: document.getElementById(id).getBoundingClientRect().height,
					top: document.getElementById(id).getBoundingClientRect().top,
					left: document.getElementById(id).getBoundingClientRect().left
				};
				return r;
			};

			function animateOld(target , time, end){
				console.log('old');
				if (typeof(target) != 'function') {
					console.log('First parameter is not a function!');
					return false;
				};
				var step = 0;
				var timer = setInterval(function(){
					if (step == (time / 25)) {
						clearInterval(timer);
						if (typeof(end) == 'function') {end()};
					} else {
						step++;
						target(step / (time / 25));
					};
				}, 25);
			};

			function animate(draw , duration, end){
				if (!window.requestAnimationFrame){
					animateOld(draw, duration, end);
					return;
				};
				var start = performance.now();
				var animId = requestAnimationFrame(function animate(time) {
					var timePassed = time - start;
					if (timePassed > duration) {
						timePassed = duration;
					};
					draw(timePassed / duration);
					if (timePassed < duration) {
						requestAnimationFrame(animate);
					} else {
						cancelAnimationFrame(animId);
						if (typeof(end) == 'function') {end()};
					};
				});
			};

			function setLogo(){
				var dpi = window.devicePixelRatio;
				var doc = document.getElementById('svg_doc');
				doc.setAttribute('width',screenWidth);
				doc.setAttribute('height',screenHeight);
				var bg = document.getElementById('bg');
				bg.setAttribute('x',0);
				bg.setAttribute('y',0);
				bg.setAttribute('width',screenWidth);
				bg.setAttribute('height',screenHeight);
				if (screenWidth / dpi >= 500) {
					var newWidthP = 0.25;
				} else {
					var newWidthP = 0.5;
				};

				var newWidth = screenWidth * newWidthP;
				scale = newWidth / logoBox.width;
				var newHeight = logoBox.height * scale;
				var newX = ((screenWidth - newWidth) / 2 - logoBox.left * scale) / scale;
				var newY = ((screenHeight - newHeight) / 2 - logoBox.top * scale) / scale;
				var pointBox = getBox('point');
				logo.setAttribute('transform', 'scale('+scale+') translate('+newX+', '+newY+')');

				var pointX = document.getElementById('mask-pointX');
				pointX.setAttribute('cx', (pointBox.left + (pointBox.width / 2) + newX) * scale);
				pointX.setAttribute('cy', (pointBox.top + (pointBox.height / 2) + newY) * scale);

				var point = document.getElementById('mask-point');
				point.setAttribute('cx', pointBox.left + pointBox.width / 2);
				point.setAttribute('cy', pointBox.top + pointBox.height / 2);

			};

			var drawingLogo = function(pos){
				for (i=0; i < pathes.arr.length; i++) {
					pathes.arr[i].obj.setAttribute('stroke-dasharray',(pathes.arr[i].len * easeInOut(pos))+' '+pathes.arr[i].len);
				};
			};

			var fillLogo = function(pos){
				logo.setAttribute('stroke-opacity',(1 - pos));
				logo.setAttribute('fill','rgba(120,219,226,'+pos+')');
			};

			var maskExtension = function(pos){
				var c = Math.sqrt(Math.pow(screenWidth, 2) + Math.pow(screenHeight, 2));
				if (pos > 0) {
					document.getElementById('mask-pointX').setAttribute('r', pos * c);
					document.getElementById('mask-point').setAttribute('r', pos * (c / scale));
				};
			};

			setLogo();
			var pArr = document.getElementsByTagName('path');
			for (j=0; j<pArr.length; j++){
				pathes.addObj(pArr[j]);
			};
			document.getElementById('logo').setAttribute('stroke-opacity','1');

			animate(drawingLogo, 3000, function(){
				animate(fillLogo,500,function(){
					setTimeout(function(){
						animate(maskExtension, 500);
					}, 200)
				})
			});

		}]]>
	</script>
<defs>
	<mask id="maskX">
		<rect id="mask-fill" width="100%" height="100%" fill="#FFFFFF"/>
		<circle fill="#000000" id="mask-pointX"/>
	</mask>
	<mask id="mask">
		<rect width="100%" height="100%" fill="#FFFFFF"/>
		<circle fill="#000000" id="mask-point"/>
	</mask>
</defs>
<rect id="bg" mask="url(#maskX)" width="100%" height="100%" fill="#EEEEEE"/>
<g id="logo" mask="url(#mask)" fill="rgba(120,219,226,0)" stroke="rgba(120,219,226,1)" stroke-opacity="0" stroke-linecap="round" stroke-dasharray="0 200%">
	<path d="M152.5,88.3c-0.1-0.8-0.2-1.5-0.2-2.4c0-3.1,0.6-6.2,1.9-9.3c1.3-3.1,3.1-5.7,5.5-7.9c2.5-2.1,5.1-3.2,8-3.2 c3.1,0,5.5,1,7,3s2.3,4.6,2.3,7.7c0,3-0.7,6.1-2,9.2s-3.2,5.7-5.7,7.9s-5.2,3.2-8.2,3.2c-2.9,0-5.1-1-6.6-3 c-0.6-0.8-1-1.6-1.4-2.6 M169.1,70c-2.6,0-4.7,1.5-6.4,4.5s-2.6,6.2-2.6,9.4c0,2.5,0.4,4.3,1.1,5.5c0.7,1.2,1.7,1.8,2.8,1.8 c2.2,0,4.2-1.7,6-5.2c1.7-3.5,2.6-6.9,2.6-10.3C172.6,71.9,171.5,70,169.1,70z"/>
	<path d="M137.2,92.1c0.1,1.1,0.5,2,1.2,2.6c1.1,1.1,2.6,1.7,4.4,1.7c3.6,0,7.1-1.7,10.4-5.4l-0.7-2.7 c-0.7,0.6-1.5,1.1-2.4,1.5c-1.2,0.6-2.3,0.9-3.3,0.9c-1.8,0-2.4-1.4-1.8-4.4l3.7-17.3c0.5-2.2-0.5-3.3-2.9-3.3 c-2.1,0-4.3,1-6.7,2.9c-0.6,0.5-0.9,1.1-0.8,1.8c0.1,0.7,0.4,1.2,0.8,1.5c0.6-0.5,1-0.7,1.2-0.7c0.6,0,0.8,0.5,0.6,1.5l-3.3,15.5"/>
	<path d="M151.4,58c-0.2,1.2-0.7,2.2-1.6,3c-0.9,0.8-1.9,1.2-3.1,1.2c-1.2,0-2.2-0.4-2.9-1.2c-0.8-0.9-1-1.9-0.9-3 c0.1-1.2,0.6-2.1,1.5-3c0.9-0.8,1.9-1.2,3.1-1.2c1.2,0,2.1,0.4,2.9,1.2C151.2,55.8,151.5,56.8,151.4,58z"/>
	<path d="M106.3,88.3c-0.1-0.6-0.1-1.2-0.1-1.8c0-5.4,1.5-10.2,4.5-14.5s6.5-6.5,10.6-6.5c2.4,0,4.4,0.6,5.8,1.7l1.5-7 c0.2-0.8,0-1.3-0.4-1.5s-0.9,0-1.3,0.6c-0.6-0.6-0.9-1.2-0.9-1.9c0-0.7,0.9-1.6,2.6-2.7s3.4-1.6,4.9-1.6c2.4,0,3.4,1.1,2.9,3.3 l-6.3,29.9c-0.6,3,0,4.4,1.8,4.4c1,0,2.2-0.3,3.3-0.9c0.9-0.5,1.7-1,2.4-1.6l-0.4,3.9c-1.1,1-2.3,1.9-3.5,2.6 c-2,1.3-3.7,1.9-5.3,1.9c-3.7,0-5.5-2-5.5-6.1c-2.9,4-5.9,6.1-9.1,6.1c-1.5,0-2.7-0.3-3.8-1s-1.8-1.5-2.3-2.6 c-0.3-0.6-0.5-1.3-0.8-1.9 M123.1,86.5L123.1,86.5l3.4-16c-1-0.4-2-0.5-2.9-0.5c-1.7,0-3.3,0.5-4.6,1.6c-1.3,1-2.4,2.4-3.1,4 s-1.3,3.4-1.6,5.1c-0.4,1.8-0.5,3.6-0.5,5.3c0,1.4,0.3,2.5,0.9,3.2s1.4,1.1,2.3,1.1c1,0,2-0.3,3.2-1 C121.3,88.6,122.3,87.7,123.1,86.5z"/>
	<path d="M106.9,91.1c-1.4,1.5-2.9,2.6-4.6,3.6c-1.9,1.1-3.7,1.7-5.3,1.7c-1.7,0-3.1-0.5-4.2-1.6 c-1.1-1-1.5-2.8-1.4-5.2c-2.8,4.5-5.7,6.8-8.8,6.8c-1.6,0-2.8-0.4-3.8-1.1c-1-0.8-1.6-1.7-1.9-3c-0.3-1.2-0.4-2.4-0.4-3.7 c0.2-1.1,0.4-2.3,0.7-3.6l3.2-14c0.2-1-0.2-1.5-1.3-1.5h-8l-3.5,16.9c-0.3,1.5-0.3,2.6,0,3.3s0.7,1.1,1.3,1.1c1.4,0,2.6-1,3.4-2.9 c1.2,0,1.8,0.5,1.8,1.6c0,2-0.9,3.6-2.7,5c-1.8,1.4-3.7,2-5.5,2c-0.8,0-1.6-0.1-2.4-0.4c-0.7-0.3-1.5-0.7-2.2-1.4S60.2,93.1,60,92 c-0.2-1.1-0.1-2.6,0.1-4.4l3.8-18.1h-3c-0.2-1,0-1.8,0.5-2.5s1.1-1,2.1-1h1.1l1.1-4.9c0.3-1.3,0.9-2.2,1.8-2.8 c0.9-0.6,2-0.9,3.2-0.9c1.1,0,2,0.3,2.8,0.8l-1.7,7.9h13c2.4,0,3.4,1.1,2.9,3.3l-3.6,16.7c-0.5,2.4,0.2,3.5,2,3.5 c1.9,0,3.8-1,5.5-3.1l3.6-17c0.3-1.3,0.9-2.2,1.8-2.9c0.9-0.6,2-0.9,3.2-0.9c1.1,0,2,0.3,2.8,0.8l-4.2,19.9c-0.6,3,0,4.4,1.8,4.4 c1,0,2.2-0.3,3.3-0.9c1-0.5,1.7-1,2.4-1.6"/>
	<path d="M43.1,96.5c-3,0-5.3-0.8-6.8-2.3c-1.5-1.6-2-3.4-1.7-5.6c0.2-1.3,0.8-2.4,1.7-3.3s2-1.3,3.4-1.3 c1,0,1.8,0.3,2.4,0.8c-0.8,1-1.3,2.2-1.3,3.8c0,1.3,0.4,2.3,1.1,2.9c0.7,0.7,1.6,1,2.7,1c1.2,0,2.3-0.5,3.3-1.4s1.5-2,1.5-3.4 c0-0.8-0.3-1.6-1-2.2c-0.7-0.6-1.5-1.2-2.5-1.8c-1-0.5-2-1.1-2.9-1.8c-1-0.7-1.8-1.6-2.5-2.9c-0.7-1.2-1-2.7-1-4.3 c0-2.6,0.9-4.8,2.7-6.6c1.8-1.8,4.3-2.7,7.6-2.7c5,0,7.6,1.9,7.6,5.8c0,1.6-0.4,2.8-1.2,3.7c-0.8,0.9-1.8,1.3-3,1.2 c-0.9-0.1-1.7-0.4-2.4-0.8c0.7-0.8,1-1.9,1-3.2c0-1-0.3-1.8-0.8-2.4s-1.2-0.8-1.9-0.8c-0.9,0-1.7,0.4-2.4,1.3s-1.1,2.1-1.1,3.6 c0,1.2,0.3,2.2,1,3c0.7,0.8,1.5,1.5,2.5,2s1.9,1.1,2.9,1.7c1,0.6,1.8,1.3,2.5,2.3s1,2.2,1,3.6c0,3.1-1,5.5-3,7.4 C50.4,95.6,47.3,96.5,43.1,96.5z"/>
	<path id="point" d="M24,96.2c-0.8-0.8-1.1-1.8-1-3s0.5-2.1,1.4-3c0.8-0.8,1.8-1.2,3-1.2s2.1,0.4,2.9,1.2s1.1,1.8,1.1,3 c-0.1,1.2-0.6,2.2-1.4,3c-0.9,0.8-1.9,1.2-3,1.2C25.8,97.5,24.8,97.1,24,96.2z"/>
	<path d="M152.4,38.5c0-0.4,0-0.7,0.1-1.1c0.2-1.3,0.8-2.4,1.7-3.3s2-1.3,3.4-1.3c1,0,1.8,0.3,2.4,0.8 c-0.8,1-1.3,2.2-1.3,3.8c0,1.3,0.4,2.3,1.1,2.9c0.7,0.7,1.6,1,2.7,1c1.2,0,2.3-0.5,3.3-1.4s1.5-2,1.5-3.4c0-0.8-0.3-1.6-1-2.2 s-1.5-1.2-2.5-1.8c-1-0.6-1.9-1.1-2.9-1.8c-1-0.7-1.8-1.6-2.5-2.9c-0.7-1.2-1-2.7-1-4.3c0-2.6,0.9-4.8,2.7-6.6 c1.8-1.8,4.3-2.7,7.6-2.7c5,0,7.6,1.9,7.6,5.8c0,1.6-0.4,2.8-1.2,3.7s-1.8,1.3-3,1.2c-0.9-0.1-1.7-0.4-2.4-0.8 c0.7-0.8,1-1.9,1-3.2c0-1-0.3-1.8-0.8-2.4s-1.2-0.8-1.9-0.8c-0.9,0-1.7,0.4-2.4,1.3s-1.1,2.1-1.1,3.6c0,1.2,0.3,2.2,1,3 s1.5,1.5,2.5,2s1.9,1.1,2.9,1.6c1,0.6,1.8,1.3,2.5,2.3c0.7,1,1,2.2,1,3.6c0,3.1-1,5.5-3,7.4c-2.1,1.8-5.2,2.8-9.4,2.8 c-3,0-5.3-0.8-6.8-2.3c-0.4-0.4-0.7-0.8-1-1.3"/>
	<path d="M152.4,38.5c-1.2,0.6-2.3,0.9-3.3,0.9c-1.8,0-2.4-1.4-1.8-4.4l3.7-17.3c0.5-2.2-0.5-3.3-2.9-3.3c-2.1,0-4.3,1-6.7,2.9c-0.6,0.5-0.9,1.1-0.8,1.8s0.4,1.2,0.8,1.5c0.6-0.5,1-0.7,1.2-0.7c0.6,0,0.8,0.5,0.6,1.5l-3.5,16.7c-0.6,2.5-0.2,4.3,0.9,5.2c1.1,1.1,2.6,1.7,4.4,1.7c2.8,0,5.6-1.1,8.2-3.3"/>
	<path d="M153.6,6.7c-0.2,1.2-0.7,2.2-1.6,3c-0.9,0.8-1.9,1.2-3.1,1.2s-2.2-0.4-2.9-1.2c-0.8-0.8-1-1.8-0.9-3s0.6-2.1,1.5-3c0.9-0.8,1.9-1.2,3.1-1.2c1.2,0,2.1,0.4,2.9,1.2S153.7,5.5,153.6,6.7z"/>
	<path d="M123.1,45.3c-3,0-5.3-0.8-6.8-2.3s-2-3.4-1.7-5.6c0.2-1.3,0.8-2.4,1.7-3.3c0.9-0.9,2-1.3,3.4-1.3c1,0,1.8,0.3,2.4,0.8c-0.8,1-1.3,2.2-1.3,3.8c0,1.3,0.4,2.3,1.1,2.9c0.7,0.7,1.6,1,2.7,1c1.2,0,2.3-0.5,3.3-1.4s1.5-2,1.5-3.4c0-0.8-0.3-1.6-1-2.2s-1.5-1.2-2.5-1.8c-1-0.6-1.9-1.1-2.9-1.8c-1-0.7-1.8-1.6-2.5-2.9c-0.7-1.2-1-2.7-1-4.3c0-2.6,0.9-4.8,2.7-6.6c1.8-1.8,4.3-2.7,7.6-2.7c5,0,7.6,1.9,7.6,5.8c0,1.6-0.4,2.8-1.2,3.7s-1.8,1.3-3,1.2c-0.9-0.1-1.7-0.4-2.4-0.8c0.7-0.8,1-1.9,1-3.2c0-1-0.3-1.8-0.8-2.4s-1.2-0.8-1.9-0.8c-0.9,0-1.7,0.4-2.4,1.3c-0.7,0.9-1.1,2.1-1.1,3.6c0,1.2,0.3,2.2,1,3s1.5,1.5,2.5,2s1.9,1.1,2.9,1.6c1,0.6,1.8,1.3,2.5,2.3c0.7,1,1,2.2,1,3.6 c0,3.1-1,5.5-3,7.4C130.4,44.3,127.3,45.3,123.1,45.3z"/>
	<path d="M91.9,36.2c0.3-0.8,0.8-1.4,1.4-2c0.9-0.9,2-1.3,3.4-1.3c1,0,1.8,0.3,2.4,0.8c-0.8,1-1.3,2.2-1.3,3.8 c0,1.3,0.4,2.3,1.1,2.9c0.7,0.7,1.6,1,2.7,1c1.2,0,2.3-0.5,3.3-1.4s1.5-2,1.5-3.4c0-0.8-0.3-1.6-1-2.2s-1.5-1.2-2.5-1.8 c-1-0.6-2-1.1-2.9-1.8c-1-0.7-1.8-1.6-2.5-2.9c-0.7-1.2-1-2.7-1-4.3c0-2.6,0.9-4.8,2.7-6.6c1.8-1.8,4.3-2.7,7.6-2.7 c5,0,7.6,1.9,7.6,5.8c0,1.6-0.4,2.8-1.2,3.7s-1.8,1.3-3,1.2c-0.9-0.1-1.7-0.4-2.4-0.8c0.7-0.8,1-1.9,1-3.2c0-1-0.3-1.8-0.8-2.4 s-1.2-0.8-1.9-0.8c-0.9,0-1.7,0.4-2.4,1.3c-0.7,0.9-1.1,2.1-1.1,3.6c0,1.2,0.3,2.2,1,3s1.5,1.5,2.5,2s1.9,1.1,2.9,1.6 c1,0.6,1.8,1.3,2.5,2.3c0.7,1,1,2.2,1,3.6c0,3.1-1,5.5-3,7.4c-2.1,1.8-5.2,2.8-9.4,2.8c-3,0-5.3-0.8-6.8-2.3 c-0.8-0.8-1.3-1.7-1.6-2.7"/>
	<path d="M68.9,37.1c-0.1-0.8-0.2-1.6-0.2-2.5c0-2,0.3-4.2,1-6.5s1.6-4.5,2.8-6.6c1.2-2.1,2.8-3.8,4.8-5.2s4.1-2,6.5-2 c2.5,0,4.2,0.6,5.3,1.7c1.1,1,1.6,2.4,1.6,4c0,2.7-1,5.2-3,7.5s-5.8,5-11.3,8.1c0.6,3,2.4,4.4,5.6,4.4c2.1,0,4.4-0.6,6.8-1.9 c1.1-0.6,2.3-1.2,3.1-1.9l-0.2,4.2c-1.1,0.9-2.2,1.7-3.4,2.4c-3.1,1.7-6.2,2.6-9.2,2.6s-5.5-0.9-7.4-2.7c-0.9-0.8-1.5-1.8-2-3 M84.4,18.9c-1.4,0-2.6,0.5-3.7,1.6c-1.1,1-1.9,2.4-2.5,4s-1,3.1-1.3,4.6c-0.3,1.4-0.5,2.8-0.5,4c6.5-4.1,9.8-8,9.8-11.8 c0-0.7-0.2-1.2-0.5-1.7C85.3,19.1,84.9,18.9,84.4,18.9z"/>
	<path d="M39,41.4l-0.7,3c0.8,0.5,1.7,0.8,2.8,0.8c1.2,0,2.3-0.3,3.2-0.9s1.5-1.5,1.8-2.8l3.7-17.1 c0.7-0.9,1.6-1.6,2.6-2.2c1.1-0.6,2-0.9,2.8-0.9c1.6,0,2.1,1.1,1.6,3.5l-2.5,11.9c-1.2,5.7,0.4,8.5,4.7,8.5 c3.7,0,7.2-1.8,10.6-5.6l-0.7-2.5c-0.7,0.6-1.5,1.1-2.5,1.6c-1.2,0.6-2.3,0.9-3.3,0.9c-1.4,0-1.9-0.9-1.6-2.5l3-13.8 c0.6-2.9,0.5-5.1-0.3-6.6s-2.1-2.2-3.8-2.2c-1.8,0-3.5,0.5-5.3,1.6c-1.8,1.2-3.3,2.6-4.6,4.4l0.6-2.7c0.5-2.2-0.5-3.3-2.9-3.3 c-2.1,0-4.3,1-6.7,2.9c-0.6,0.5-0.9,1.1-0.8,1.8c0.1,0.7,0.4,1.2,0.8,1.5c0.6-0.5,1-0.8,1.1-0.8c0.6,0,0.8,0.5,0.6,1.5l-3.4,15.7"/>
	<path d="M39,41.4c-2.8,2.5-5.7,3.6-8.7,3.6c-1.8,0-3.3-0.6-4.4-1.7c-1.1-0.9-1.4-2.7-0.9-5.2l3.5-16.7 c0.2-1,0-1.5-0.6-1.5c-0.2,0-0.6,0.2-1.2,0.7c-0.4-0.3-0.7-0.8-0.8-1.5c-0.1-0.7,0.2-1.3,0.8-1.8c2.4-1.9,4.6-2.9,6.7-2.9 c2.4,0,3.4,1.1,2.9,3.3L32.7,35c-0.6,3,0,4.4,1.8,4.4c1,0,2.1-0.3,3.3-0.9c0.8-0.4,1.4-0.8,2-1.4"/>
	<path d="M39,6.7c-0.2,1.2-0.7,2.2-1.6,3c-0.9,0.8-1.9,1.2-3.1,1.2s-2.2-0.4-2.9-1.2s-1-1.8-0.9-3s0.6-2.1,1.5-3 c0.9-0.8,1.9-1.2,3.1-1.2s2.1,0.4,2.9,1.2C38.8,4.5,39.1,5.5,39,6.7z"/>
</g>
</svg>
